999
dxflib 2.0.4.8
  0
SECTION
  2
HEADER
  9
$ACADVER
  1
AC1015
  9
$HANDSEED
  5
FFFF
  9
$DIMASZ
 40
98.4251968503937036
  9
$DIMGAP
 40
24.6062992125984259
  9
$DIMEXO
 40
24.6062992125984259
  9
$INSUNITS
 70
9
  9
$DIMTXT
 40
98.4251968503937036
  9
$PSVPSCALE
 40
1.0621091392119706
  9
$PLIMMAX
 10
8267.7165354330718401
 20
11692.9133858267723554
  9
$PLIMMIN
 10
0.0
 20
0.0
  9
$PINSBASE
 10
2094.142962805888601
 20
3695.6856919151055081
 30
0.0
  9
$DIMEXE
 40
49.2125984251968518
  0
ENDSEC
  0
SECTION
  2
TABLES
  0
TABLE
  2
VPORT
  5
8
100
AcDbSymbolTable
 70
1
  0
VPORT
  5
30
100
AcDbSymbolTableRecord
100
AcDbViewportTableRecord
  2
*Active
 70
0
 10
0.0
 20
0.0
 11
1.0
 21
1.0
 12
286.3055555555554861
 22
148.5
 13
0.0
 23
0.0
 14
10.0
 24
10.0
 15
10.0
 25
10.0
 16
0.0
 26
0.0
 36
1.0
 17
0.0
 27
0.0
 37
0.0
 40
297.0
 41
1.92798353909465
 42
50.0
 43
0.0
 44
0.0
 50
0.0
 51
0.0
 71
0
 72
100
 73
1
 74
3
 75
1
 76
1
 77
0
 78
0
281
0
 65
1
110
0.0
120
0.0
130
0.0
111
1.0
121
0.0
131
0.0
112
0.0
122
1.0
132
0.0
 79
0
146
0.0
  0
ENDTAB
  0
TABLE
  2
LTYPE
  5
5
100
AcDbSymbolTable
 70
21
  0
LTYPE
  5
14
100
AcDbSymbolTableRecord
100
AcDbLinetypeTableRecord
  2
ByBlock
 70
0
  3

 72
65
 73
0
 40
0.0
  0
LTYPE
  5
15
100
AcDbSymbolTableRecord
100
AcDbLinetypeTableRecord
  2
ByLayer
 70
0
  3

 72
65
 73
0
 40
0.0
  0
LTYPE
  5
16
100
AcDbSymbolTableRecord
100
AcDbLinetypeTableRecord
  2
CONTINUOUS
 70
0
  3
Solid line
 72
65
 73
0
 40
0.0
  0
LTYPE
  5
31
100
AcDbSymbolTableRecord
100
AcDbLinetypeTableRecord
  2
DOT
 70
0
  3
Dot . . . . . . . . . . . . . . . . . . . . . .
 72
65
 73
2
 40
6.3499999999999996
 49
0.0
 74
0
 49
-6.3499999999999996
 74
0
  0
LTYPE
  5
32
100
AcDbSymbolTableRecord
100
AcDbLinetypeTableRecord
  2
DOT2
 70
0
  3
Dot (.5x) .....................................
 72
65
 73
2
 40
3.1749999999999998
 49
0.0
 74
0
 49
-3.1749999999999998
 74
0
  0
LTYPE
  5
33
100
AcDbSymbolTableRecord
100
AcDbLinetypeTableRecord
  2
DOTX2
 70
0
  3
Dot (2x) .  .  .  .  .  .  .  .  .  .  .  .  .
 72
65
 73
2
 40
12.6999999999999993
 49
0.0
 74
0
 49
-12.6999999999999993
 74
0
  0
LTYPE
  5
34
100
AcDbSymbolTableRecord
100
AcDbLinetypeTableRecord
  2
DASHED
 70
0
  3
Dashed __ __ __ __ __ __ __ __ __ __ __ __ __ _
 72
65
 73
2
 40
19.0500000000000007
 49
12.6999999999999993
 74
0
 49
-6.3499999999999996
 74
0
  0
LTYPE
  5
35
100
AcDbSymbolTableRecord
100
AcDbLinetypeTableRecord
  2
DASHED2
 70
0
  3
Dashed (.5x) _ _ _ _ _ _ _ _ _ _ _ _ _ _ _ _ _
 72
65
 73
2
 40
9.5250000000000004
 49
6.3499999999999996
 74
0
 49
-3.1749999999999998
 74
0
  0
LTYPE
  5
36
100
AcDbSymbolTableRecord
100
AcDbLinetypeTableRecord
  2
DASHEDX2
 70
0
  3
Dashed (2x) ____  ____  ____  ____  ____  ___
 72
65
 73
2
 40
38.1000000000000014
 49
25.3999999999999986
 74
0
 49
-12.6999999999999993
 74
0
  0
LTYPE
  5
37
100
AcDbSymbolTableRecord
100
AcDbLinetypeTableRecord
  2
DASHDOT
 70
0
  3
Dash dot __ . __ . __ . __ . __ . __ . __ . __
 72
65
 73
4
 40
25.3999999999999986
 49
12.6999999999999993
 74
0
 49
-6.3499999999999996
 74
0
 49
0.0
 74
0
 49
-6.3499999999999996
 74
0
  0
LTYPE
  5
38
100
AcDbSymbolTableRecord
100
AcDbLinetypeTableRecord
  2
DASHDOT2
 70
0
  3
Dash dot (.5x) _._._._._._._._._._._._._._._.
 72
65
 73
4
 40
12.6999999999999993
 49
6.3499999999999996
 74
0
 49
-3.1749999999999998
 74
0
 49
0.0
 74
0
 49
-3.1749999999999998
 74
0
  0
LTYPE
  5
39
100
AcDbSymbolTableRecord
100
AcDbLinetypeTableRecord
  2
DASHDOTX2
 70
0
  3
Dash dot (2x) ____  .  ____  .  ____  .  ___
 72
65
 73
4
 40
50.7999999999999972
 49
25.3999999999999986
 74
0
 49
-12.6999999999999993
 74
0
 49
0.0
 74
0
 49
-12.6999999999999993
 74
0
  0
LTYPE
  5
3A
100
AcDbSymbolTableRecord
100
AcDbLinetypeTableRecord
  2
DIVIDE
 70
0
  3
Divide ____ . . ____ . . ____ . . ____ . . ____
 72
65
 73
6
 40
31.75
 49
12.6999999999999993
 74
0
 49
-6.3499999999999996
 74
0
 49
0.0
 74
0
 49
-6.3499999999999996
 74
0
 49
0.0
 74
0
 49
-6.3499999999999996
 74
0
  0
LTYPE
  5
3B
100
AcDbSymbolTableRecord
100
AcDbLinetypeTableRecord
  2
DIVIDE2
 70
0
  3
Divide (.5x) __..__..__..__..__..__..__..__.._
 72
65
 73
6
 40
15.875
 49
6.3499999999999996
 74
0
 49
-3.1749999999999998
 74
0
 49
0.0
 74
0
 49
-3.1749999999999998
 74
0
 49
0.0
 74
0
 49
-3.1749999999999998
 74
0
  0
LTYPE
  5
3C
100
AcDbSymbolTableRecord
100
AcDbLinetypeTableRecord
  2
DIVIDEX2
 70
0
  3
Divide (2x) ________  .  .  ________  .  .  _
 72
65
 73
6
 40
63.5
 49
25.3999999999999986
 74
0
 49
-12.6999999999999993
 74
0
 49
0.0
 74
0
 49
-12.6999999999999993
 74
0
 49
0.0
 74
0
 49
-12.6999999999999993
 74
0
  0
LTYPE
  5
3D
100
AcDbSymbolTableRecord
100
AcDbLinetypeTableRecord
  2
CENTER
 70
0
  3
Center ____ _ ____ _ ____ _ ____ _ ____ _ ____
 72
65
 73
4
 40
50.7999999999999972
 49
31.75
 74
0
 49
-6.3499999999999996
 74
0
 49
6.3499999999999996
 74
0
 49
-6.3499999999999996
 74
0
  0
LTYPE
  5
3E
100
AcDbSymbolTableRecord
100
AcDbLinetypeTableRecord
  2
CENTER2
 70
0
  3
Center (.5x) ___ _ ___ _ ___ _ ___ _ ___ _ ___
 72
65
 73
4
 40
28.5749999999999993
 49
19.0500000000000007
 74
0
 49
-3.1749999999999998
 74
0
 49
3.1749999999999998
 74
0
 49
-3.1749999999999998
 74
0
  0
LTYPE
  5
3F
100
AcDbSymbolTableRecord
100
AcDbLinetypeTableRecord
  2
CENTERX2
 70
0
  3
Center (2x) ________  __  ________  __  _____
 72
65
 73
4
 40
101.5999999999999943
 49
63.5
 74
0
 49
-12.6999999999999993
 74
0
 49
12.6999999999999993
 74
0
 49
-12.6999999999999993
 74
0
  0
LTYPE
  5
40
100
AcDbSymbolTableRecord
100
AcDbLinetypeTableRecord
  2
BORDER
 70
0
  3
Border __ __ . __ __ . __ __ . __ __ . __ __ .
 72
65
 73
6
 40
44.4500000000000028
 49
12.6999999999999993
 74
0
 49
-6.3499999999999996
 74
0
 49
12.6999999999999993
 74
0
 49
-6.3499999999999996
 74
0
 49
0.0
 74
0
 49
-6.3499999999999996
 74
0
  0
LTYPE
  5
41
100
AcDbSymbolTableRecord
100
AcDbLinetypeTableRecord
  2
BORDER2
 70
0
  3
Border (.5x) __.__.__.__.__.__.__.__.__.__.__.
 72
65
 73
6
 40
22.2250000000000014
 49
6.3499999999999996
 74
0
 49
-3.1749999999999998
 74
0
 49
6.3499999999999996
 74
0
 49
-3.1749999999999998
 74
0
 49
0.0
 74
0
 49
-3.1749999999999998
 74
0
  0
LTYPE
  5
42
100
AcDbSymbolTableRecord
100
AcDbLinetypeTableRecord
  2
BORDERX2
 70
0
  3
Border (2x) ____  ____  .  ____  ____  .  ___
 72
65
 73
6
 40
88.9000000000000057
 49
25.3999999999999986
 74
0
 49
-12.6999999999999993
 74
0
 49
25.3999999999999986
 74
0
 49
-12.6999999999999993
 74
0
 49
0.0
 74
0
 49
-12.6999999999999993
 74
0
  0
ENDTAB
  0
TABLE
  2
LAYER
  5
2
100
AcDbSymbolTable
 70
1
  0
LAYER
  5
10
100
AcDbSymbolTableRecord
100
AcDbLayerTableRecord
  2
0
 70
0
 62
7
  6
CONTINUOUS
370
0
390
F
  0
ENDTAB
  0
TABLE
  2
STYLE
  5
3
100
AcDbSymbolTable
 70
1
  0
STYLE
  5
11
100
AcDbSymbolTableRecord
100
AcDbTextStyleTableRecord
  2
Standard
 70
0
 40
0.0
 41
0.75
 50
0.0
 71
0
 42
2.5
  3
txt
  4

  0
ENDTAB
  0
TABLE
  2
VIEW
  5
6
100
AcDbSymbolTable
 70
0
  0
ENDTAB
  0
TABLE
  2
UCS
  5
7
100
AcDbSymbolTable
 70
0
  0
ENDTAB
  0
TABLE
  2
APPID
  5
9
100
AcDbSymbolTable
 70
1
  0
APPID
  5
12
100
AcDbSymbolTableRecord
100
AcDbRegAppTableRecord
  2
ACAD
 70
0
  0
ENDTAB
  0
TABLE
  2
DIMSTYLE
  5
A
100
AcDbSymbolTable
 70
1
100
AcDbDimStyleTable
 71
0
  0
DIMSTYLE
105
27
100
AcDbSymbolTableRecord
100
AcDbDimStyleTableRecord
  2
Standard
 41
98.4251968503937036
 42
24.6062992125984259
 43
3.75
 44
49.2125984251968518
 70
0
 73
0
 74
0
 77
1
 78
8
140
98.4251968503937036
141
2.5
143
0.03937007874016
147
24.6062992125984259
171
3
172
1
271
2
272
2
274
3
278
44
283
0
284
8
340
11
  0
ENDTAB
  0
TABLE
  2
BLOCK_RECORD
  5
1
100
AcDbSymbolTable
 70
1
  0
BLOCK_RECORD
  5
1F
100
AcDbSymbolTableRecord
100
AcDbBlockTableRecord
  2
*Model_Space
340
22
  0
BLOCK_RECORD
  5
1B
100
AcDbSymbolTableRecord
100
AcDbBlockTableRecord
  2
*Paper_Space
340
1E
  0
BLOCK_RECORD
  5
23
100
AcDbSymbolTableRecord
100
AcDbBlockTableRecord
  2
*Paper_Space0
340
26
  0
ENDTAB
  0
ENDSEC
  0
SECTION
  2
BLOCKS
  0
BLOCK
  5
20
100
AcDbEntity
  8
0
100
AcDbBlockBegin
  2
*Model_Space
 70
0
 10
0.0
 20
0.0
 30
0.0
  3
*Model_Space
  1

  0
ENDBLK
  5
21
100
AcDbEntity
  8
0
100
AcDbBlockEnd
  0
BLOCK
  5
1C
100
AcDbEntity
 67
1
  8
0
100
AcDbBlockBegin
  2
*Paper_Space
 70
0
 10
0.0
 20
0.0
 30
0.0
  3
*Paper_Space
  1

  0
ENDBLK
  5
1D
100
AcDbEntity
 67
1
  8
0
100
AcDbBlockEnd
  0
BLOCK
  5
24
100
AcDbEntity
  8
0
100
AcDbBlockBegin
  2
*Paper_Space0
 70
0
 10
0.0
 20
0.0
 30
0.0
  3
*Paper_Space0
  1

  0
ENDBLK
  5
25
100
AcDbEntity
  8
0
100
AcDbBlockEnd
  0
ENDSEC
  0
SECTION
  2
ENTITIES
  0
LEADER
  5
43
  8
0
 62
256
370
-1
  6
ByLayer
100
AcDbEntity
100
AcDbLeader
  3
Standard
 71
1
 72
0
 73
3
 74
0
 75
0
 40
1.0
 41
10.0
 76
3
 10
1400.0
 20
-200.0
 10
1600.0
 20
-600.0
 10
1900.0
 20
-600.0
  0
LINE
  5
44
100
AcDbEntity
100
AcDbLine
  8
0
 62
256
370
-1
  6
DOT
 10
-59.0000000000001705
 20
1911.8948822334846227
 30
0.0
 11
58.9999999999998224
 21
1911.8948822334846227
 31
0.0
  0
LEADER
  5
45
  8
0
 62
256
370
-1
  6
ByLayer
100
AcDbEntity
100
AcDbLeader
  3
Standard
 71
1
 72
0
 73
3
 74
0
 75
0
 40
1.0
 41
10.0
 76
3
 10
300.0
 20
4200.0
 10
700.0
 20
3900.0
 10
900.0
 20
3900.0
  0
MTEXT
  5
46
100
AcDbEntity
100
AcDbMText
  8
0
 62
256
370
-1
  6
ByLayer
 10
1000.0
 20
1800.0
 30
0.0
 40
100.0
 41
100.0
 71
4
 72
0
  1
1/2"\~PEEK\~rod
  7
normallatin1
 50
0.0
 73
1
 44
1.0
  0
LEADER
  5
47
  8
0
 62
256
370
-1
  6
ByLayer
100
AcDbEntity
100
AcDbLeader
  3
Standard
 71
1
 72
0
 73
3
 74
0
 75
0
 40
1.0
 41
10.0
 76
3
 10
124.9999999999998863
 20
1450.0
 10
700.0
 20
1800.0
 10
1000.0
 20
1800.0
  0
LINE
  5
48
100
AcDbEntity
100
AcDbLine
  8
0
 62
256
370
-1
  6
ByLayer
 10
-314.4999999999997726
 20
3800.0
 30
0.0
 11
-314.5
 21
3000.0
 31
0.0
  0
LINE
  5
49
100
AcDbEntity
100
AcDbLine
  8
0
 62
256
370
-1
  6
ByLayer
 10
-314.5
 20
3000.0
 30
0.0
 11
314.5
 21
3000.0
 31
0.0
  0
LINE
  5
4A
100
AcDbEntity
100
AcDbLine
  8
0
 62
256
370
-1
  6
ByLayer
 10
314.5
 20
3000.0
 30
0.0
 11
314.4999999999998295
 21
3800.0
 31
0.0
  0
CIRCLE
  5
4B
100
AcDbEntity
100
AcDbCircle
  8
0
 62
256
370
-1
  6
ByLayer
 10
149.9999999999999716
 20
3605.0
 30
0.0
 40
59.0
  0
CIRCLE
  5
4C
100
AcDbEntity
100
AcDbCircle
  8
0
 62
256
370
-1
  6
ByLayer
 10
-149.9999999999998863
 20
3605.0
 30
0.0
 40
59.0
  0
DIMENSION
  5
4D
100
AcDbEntity
  8
0
 62
256
370
-1
  6
ByLayer
100
AcDbDimension
 10
500.0
 20
3800.0
 30
0.0
 11
549.9999999999998863
 21
3400.0
 31
0.0
 70
0
 71
5
 72
0
 41
1.0
 42
4.7123889803846897
  1

  3
Standard
100
AcDbAlignedDimension
 13
314.5
 23
3000.0
 33
0.0
 14
314.4999999999998295
 24
3800.0
 34
0.0
 50
270.0
100
AcDbRotatedDimension
  0
LINE
  5
4E
100
AcDbEntity
100
AcDbLine
  8
0
 62
256
370
-1
  6
ByLayer
 10
-107.5
 20
3000.0
 30
0.0
 11
107.5
 21
3000.0
 31
0.0
  0
LINE
  5
4F
100
AcDbEntity
100
AcDbLine
  8
0
 62
256
370
-1
  6
DOT
 10
59.499999999999261
 20
3769.7341452841692444
 30
0.0
 11
59.5
 21
3500.0
 31
0.0
  0
LINE
  5
50
100
AcDbEntity
100
AcDbLine
  8
0
 62
256
370
-1
  6
DOT
 10
-59.4999999999999361
 20
3500.0
 30
0.0
 11
-59.4999999999991473
 21
3769.7341452841692444
 31
0.0
  0
LINE
  5
51
100
AcDbEntity
100
AcDbLine
  8
0
 62
256
370
-1
  6
ByLayer
 10
314.4999999999998295
 20
3800.0
 30
0.0
 11
116.4217939603898344
 21
3800.0
 31
0.0
  0
LINE
  5
52
100
AcDbEntity
100
AcDbLine
  8
0
 62
256
370
-1
  6
ByLayer
 10
-116.4217939603897349
 20
3800.0
 30
0.0
 11
-314.4999999999997726
 21
3800.0
 31
0.0
  0
LINE
  5
53
100
AcDbEntity
100
AcDbLine
  8
0
 62
256
370
-1
  6
ByLayer
 10
116.4217939603898344
 20
3800.0
 30
0.0
 11
-116.4217939603897349
 21
3800.0
 31
0.0
  0
LINE
  5
54
100
AcDbEntity
100
AcDbLine
  8
0
 62
256
370
-1
  6
DOT
 10
-59.4999999999991473
 20
3769.7341452841692444
 30
0.0
 11
-116.4217939603897349
 21
3800.0
 31
0.0
  0
LINE
  5
55
100
AcDbEntity
100
AcDbLine
  8
0
 62
256
370
-1
  6
DOT
 10
59.499999999999261
 20
3769.7341452841692444
 30
0.0
 11
116.4217939603898344
 21
3800.0
 31
0.0
  0
LINE
  5
56
100
AcDbEntity
100
AcDbLine
  8
0
 62
256
370
-1
  6
DOT
 10
59.499999999999261
 20
3769.7341452841692444
 30
0.0
 11
-59.4999999999991473
 21
3769.7341452841692444
 31
0.0
  0
LINE
  5
57
100
AcDbEntity
100
AcDbLine
  8
0
 62
256
370
-1
  6
ByLayer
 10
125.0000000000000568
 20
3500.0
 30
0.0
 11
125.0000000000000568
 21
3500.0
 31
0.0
  0
CIRCLE
  5
58
100
AcDbEntity
100
AcDbCircle
  8
0
 62
256
370
-1
  6
ByLayer
 10
0.0
 20
5000.0
 30
0.0
 40
314.5
  0
LINE
  5
59
100
AcDbEntity
100
AcDbLine
  8
0
 62
256
370
-1
  6
DOT
 10
-208.9999999999999432
 20
4764.990957620775589
 30
0.0
 11
-209.0000000000017621
 21
5235.009042379224411
 31
0.0
  0
LINE
  5
5A
100
AcDbEntity
100
AcDbLine
  8
0
 62
256
370
-1
  6
DOT
 10
-91.00000000000216
 20
4698.9530767471624131
 30
0.0
 11
-90.9999999999962341
 21
5301.0469232528375869
 31
0.0
  0
LINE
  5
5B
100
AcDbEntity
100
AcDbLine
  8
0
 62
256
370
-1
  6
DOT
 10
91.0000000000021032
 20
4698.9530767471624131
 30
0.0
 11
90.9999999999962483
 21
5301.0469232528375869
 31
0.0
  0
LINE
  5
5C
100
AcDbEntity
100
AcDbLine
  8
0
 62
256
370
-1
  6
DOT
 10
209.0000000000000568
 20
4764.990957620777408
 30
0.0
 11
209.000000000001819
 21
5235.009042379224411
 31
0.0
  0
CIRCLE
  5
5D
100
AcDbEntity
100
AcDbCircle
  8
0
 62
256
370
-1
  6
ByLayer
 10
0.0
 20
5000.0
 30
0.0
 40
59.0
  0
LEADER
  5
5E
  8
0
 62
256
370
-1
  6
ByLayer
100
AcDbEntity
100
AcDbLeader
  3
Standard
 71
1
 72
0
 73
3
 74
0
 75
0
 40
1.0
 41
10.0
 76
3
 10
100.0
 20
4700.0
 10
700.0
 20
4400.0
 10
1000.0
 20
4400.0
  0
LINE
  5
5F
100
AcDbEntity
100
AcDbLine
  8
0
 62
256
370
-1
  6
ByLayer
 10
-1000.0000000000002274
 20
2450.0
 30
0.0
 11
1000.0
 21
2450.0
 31
0.0
  0
LINE
  5
60
100
AcDbEntity
100
AcDbLine
  8
0
 62
256
370
-1
  6
ByLayer
 10
1000.0
 20
2450.0
 30
0.0
 11
1000.0
 21
2575.0
 31
0.0
  0
LINE
  5
61
100
AcDbEntity
100
AcDbLine
  8
0
 62
256
370
-1
  6
ByLayer
 10
1000.0
 20
2575.0
 30
0.0
 11
-1000.0000000000002274
 21
2575.0
 31
0.0
  0
LINE
  5
62
100
AcDbEntity
100
AcDbLine
  8
0
 62
256
370
-1
  6
ByLayer
 10
-1000.0000000000002274
 20
2575.0
 30
0.0
 11
-1000.0000000000002274
 21
2450.0
 31
0.0
  0
LEADER
  5
63
  8
0
 62
256
370
-1
  6
ByLayer
100
AcDbEntity
100
AcDbLeader
  3
Standard
 71
1
 72
0
 73
3
 74
0
 75
0
 40
1.0
 41
10.0
 76
3
 10
124.9999999999998295
 20
1950.0
 10
400.0
 20
2100.0
 10
1000.0
 20
2100.0
  0
LEADER
  5
64
  8
0
 62
256
370
-1
  6
ByLayer
100
AcDbEntity
100
AcDbLeader
  3
Standard
 71
1
 72
0
 73
3
 74
0
 75
0
 40
1.0
 41
10.0
 76
3
 10
0.0
 20
3000.0
 10
300.0
 20
2800.0
 10
1000.0
 20
2800.0
  0
LINE
  5
65
100
AcDbEntity
100
AcDbLine
  8
0
 62
256
370
-1
  6
ByLayer
 10
187.5000000000001137
 20
499.9999999999998863
 30
0.0
 11
-187.5000000000001137
 21
500.0000000000001137
 31
0.0
  0
LINE
  5
66
100
AcDbEntity
100
AcDbLine
  8
0
 62
256
370
-1
  6
DOT
 10
67.9999999999999858
 20
0.0
 30
0.0
 11
67.9999999999986215
 21
-400.0
 31
0.0
  0
LINE
  5
67
100
AcDbEntity
100
AcDbLine
  8
0
 62
256
370
-1
  6
DOT
 10
-68.0000000000004121
 20
0.0
 30
0.0
 11
-67.9999999999994742
 21
-400.0
 31
0.0
  0
LINE
  5
68
100
AcDbEntity
100
AcDbLine
  8
0
 62
256
370
-1
  6
ByLayer
 10
-125.0000000000007532
 20
-400.0
 30
0.0
 11
124.9999999999998721
 21
-400.0
 31
0.0
  0
DIMENSION
  5
69
100
AcDbEntity
  8
0
 62
256
370
-1
  6
ByLayer
100
AcDbDimension
 10
-125.000000000001009
 20
-600.0
 30
0.0
 11
-0.0000000000004121
 21
-550.0
 31
0.0
 70
0
 71
5
 72
1
 41
1.0
 42
4.7123889803846897
  1

  3
Standard
100
AcDbAlignedDimension
 13
124.9999999999998721
 23
-400.0
 33
0.0
 14
-125.0000000000007532
 24
-400.0
 34
0.0
 50
360.0
100
AcDbRotatedDimension
  0
LINE
  5
6A
100
AcDbEntity
100
AcDbLine
  8
0
 62
256
370
-1
  6
DOT
 10
124.9999999999998721
 20
400.0
 30
0.0
 11
124.9999999999999858
 21
500.0000000000001137
 31
0.0
  0
LINE
  5
6B
100
AcDbEntity
100
AcDbLine
  8
0
 62
256
370
-1
  6
DOT
 10
-125.0000000000002416
 20
400.0
 30
0.0
 11
-125.0000000000000995
 21
500.0000000000001137
 31
0.0
  0
DIMENSION
  5
6C
100
AcDbEntity
  8
0
 62
256
370
-1
  6
ByLayer
100
AcDbDimension
 10
-187.5000000000003411
 20
700.0000000000001137
 30
0.0
 11
0.0
 21
770.0
 31
0.0
 70
0
 71
5
 72
1
 41
1.0
 42
4.7123889803846897
  1

  3
Standard
100
AcDbAlignedDimension
 13
187.5000000000001137
 23
499.9999999999998863
 33
0.0
 14
-187.5000000000001137
 24
500.0000000000001137
 34
0.0
 50
360.0
100
AcDbRotatedDimension
  0
LEADER
  5
6D
  8
0
 62
256
370
-1
  6
ByLayer
100
AcDbEntity
100
AcDbLeader
  3
Standard
 71
1
 72
0
 73
3
 74
0
 75
0
 40
1.0
 41
10.0
 76
3
 10
200.0
 20
500.0
 10
400.0
 20
900.0
 10
500.0
 20
900.0
  0
MTEXT
  5
6E
100
AcDbEntity
100
AcDbMText
  8
0
 62
256
370
-1
  6
ByLayer
 10
500.0
 20
900.0
 30
0.0
 40
100.0
 41
100.0
 71
4
 72
0
  1
3/8"\~brass\~rod
  7
normallatin1
 50
0.0
 73
1
 44
1.0
  0
LINE
  5
6F
100
AcDbEntity
100
AcDbLine
  8
0
 62
256
370
-1
  6
ByLayer
 10
-1000.0
 20
-1776.7766952966367171
 30
0.0
 11
-1000.0000000000002274
 21
-1423.2233047033632829
 31
0.0
  0
LINE
  5
70
100
AcDbEntity
100
AcDbLine
  8
0
 62
256
370
-1
  6
ByLayer
 10
-1000.0000000000002274
 20
-1423.2233047033632829
 30
0.0
 11
1000.0
 21
-1423.2233047033632829
 31
0.0
  0
LINE
  5
71
100
AcDbEntity
100
AcDbLine
  8
0
 62
256
370
-1
  6
ByLayer
 10
1000.0
 20
-1423.2233047033632829
 30
0.0
 11
1000.0
 21
-1776.7766952966367171
 31
0.0
  0
LINE
  5
72
100
AcDbEntity
100
AcDbLine
  8
0
 62
256
370
-1
  6
ByLayer
 10
-1000.0
 20
-1776.7766952966367171
 30
0.0
 11
1000.0
 21
-1776.7766952966367171
 31
0.0
  0
LINE
  5
73
100
AcDbEntity
100
AcDbLine
  8
0
 62
256
370
-1
  6
DOT
 10
125.0
 20
-1533.2233047033623734
 30
0.0
 11
187.5
 21
-1533.2233047033623734
 31
0.0
  0
LINE
  5
74
100
AcDbEntity
100
AcDbLine
  8
0
 62
256
370
-1
  6
DOT
 10
-187.5000000000004547
 20
-1533.2233047033623734
 30
0.0
 11
-125.0
 21
-1533.2233047033623734
 31
0.0
  0
LINE
  5
75
100
AcDbEntity
100
AcDbLine
  8
0
 62
256
370
-1
  6
DOT
 10
-125.0000000000004547
 20
-1533.2233047033623734
 30
0.0
 11
-125.0000000000006821
 21
-1776.7766952966367171
 31
0.0
  0
LINE
  5
76
100
AcDbEntity
100
AcDbLine
  8
0
 62
256
370
-1
  6
DOT
 10
125.0
 20
-1533.2233047033623734
 30
0.0
 11
125.0
 21
-1776.7766952966367171
 31
0.0
  0
LINE
  5
77
100
AcDbEntity
100
AcDbLine
  8
0
 62
256
370
-1
  6
DOT
 10
-187.5000000000004547
 20
-1533.2233047033623734
 30
0.0
 11
-187.5
 21
-1423.2233047033632829
 31
0.0
  0
LINE
  5
78
100
AcDbEntity
100
AcDbLine
  8
0
 62
256
370
-1
  6
DOT
 10
187.5
 20
-1533.2233047033623734
 30
0.0
 11
187.5
 21
-1423.2233047033632829
 31
0.0
  0
DIMENSION
  5
79
100
AcDbEntity
  8
0
 62
256
370
-1
  6
ByLayer
100
AcDbDimension
 10
1000.0
 20
-900.0
 30
0.0
 11
-0.0000000000002274
 21
-826.1811023622049106
 31
0.0
 70
0
 71
5
 72
1
 41
1.0
 42
0.0
  1

  3
Standard
100
AcDbAlignedDimension
 13
-1000.0000000000002274
 23
-1423.2233047033632829
 33
0.0
 14
1000.0
 24
-1423.2233047033632829
 34
0.0
 50
0.0
100
AcDbRotatedDimension
  0
DIMENSION
  5
7A
100
AcDbEntity
  8
0
 62
256
370
-1
  6
ByLayer
100
AcDbDimension
 10
-100.0
 20
-1900.0
 30
0.0
 11
0.0
 21
-2000.0
 31
0.0
 70
0
 71
5
 72
1
 41
1.0
 42
0.0
  1

  3
Standard
100
AcDbAlignedDimension
 13
125.0
 23
-1776.7766952966367171
 33
0.0
 14
-125.0000000000006821
 24
-1776.7766952966367171
 34
0.0
 50
0.0
100
AcDbRotatedDimension
  0
DIMENSION
  5
7B
100
AcDbEntity
  8
0
 62
256
370
-1
  6
ByLayer
100
AcDbDimension
 10
187.5
 20
-1100.0
 30
0.0
 11
0.0
 21
-1010.0
 31
0.0
 70
0
 71
5
 72
1
 41
1.0
 42
0.0
  1

  3
Standard
100
AcDbAlignedDimension
 13
-187.5
 23
-1423.2233047033632829
 33
0.0
 14
187.5
 24
-1423.2233047033632829
 34
0.0
 50
0.0
100
AcDbRotatedDimension
  0
MTEXT
  5
7C
100
AcDbEntity
100
AcDbMText
  8
0
 62
256
370
-1
  6
ByLayer
 10
-1000.0
 20
-2000.0
 30
0.0
 40
100.0
 41
100.0
 71
6
 72
0
  1
#8\~hole
  7
normallatin1
 50
0.0
 73
1
 44
1.0
  0
LEADER
  5
7D
  8
0
 62
256
370
-1
  6
ByLayer
100
AcDbEntity
100
AcDbLeader
  3
Standard
 71
1
 72
0
 73
3
 74
0
 75
0
 40
1.0
 41
10.0
 76
3
 10
-600.0
 20
-1800.0
 10
-800.0
 20
-2000.0
 10
-1000.0
 20
-2000.0
  0
LINE
  5
7E
100
AcDbEntity
100
AcDbLine
  8
0
 62
256
370
-1
  6
ByLayer
 10
2823.2233047033632829
 20
-1423.2233047033628281
 30
0.0
 11
3176.7766952966367171
 21
-1423.2233047033632829
 31
0.0
  0
ARC
  5
7F
100
AcDbEntity
  8
0
 62
256
370
-1
  6
ByLayer
100
AcDbCircle
 10
3000.0
 20
-1600.0
 30
0.0
 40
250.0
100
AcDbArc
 50
-45.0
 51
45.0
  0
ARC
  5
80
100
AcDbEntity
  8
0
 62
256
370
-1
  6
ByLayer
100
AcDbCircle
 10
3000.0
 20
-1600.0
 30
0.0
 40
250.0
100
AcDbArc
 50
134.9999999999999432
 51
224.9999999999999716
  0
LINE
  5
81
100
AcDbEntity
100
AcDbLine
  8
0
 62
256
370
-1
  6
ByLayer
 10
2823.2233047033632829
 20
-1776.7766952966367171
 30
0.0
 11
3176.7766952966367171
 21
-1776.7766952966367171
 31
0.0
  0
LINE
  5
82
100
AcDbEntity
100
AcDbLine
  8
0
 62
256
370
-1
  6
DOT
 10
3125.0
 20
-1533.2233047033623734
 30
0.0
 11
3187.5
 21
-1533.2233047033623734
 31
0.0
  0
LINE
  5
83
100
AcDbEntity
100
AcDbLine
  8
0
 62
256
370
-1
  6
DOT
 10
2812.5
 20
-1533.2233047033623734
 30
0.0
 11
2875.0
 21
-1533.2233047033623734
 31
0.0
  0
LINE
  5
84
100
AcDbEntity
100
AcDbLine
  8
0
 62
256
370
-1
  6
DOT
 10
2812.5
 20
-1533.2233047033623734
 30
0.0
 11
2812.5
 21
-1434.6405430584632086
 31
0.0
  0
LINE
  5
85
100
AcDbEntity
100
AcDbLine
  8
0
 62
256
370
-1
  6
DOT
 10
3187.5
 20
-1533.2233047033623734
 30
0.0
 11
3187.5
 21
-1434.6405430584632086
 31
0.0
  0
LINE
  5
86
100
AcDbEntity
100
AcDbLine
  8
0
 62
256
370
-1
  6
DOT
 10
2874.9999999999990905
 20
-1533.2233047033623734
 30
0.0
 11
2874.9999999999990905
 21
-1776.7766952966367171
 31
0.0
  0
LINE
  5
87
100
AcDbEntity
100
AcDbLine
  8
0
 62
256
370
-1
  6
DOT
 10
3125.0
 20
-1533.2233047033623734
 30
0.0
 11
3125.0
 21
-1776.7766952966367171
 31
0.0
  0
MTEXT
  5
88
100
AcDbEntity
100
AcDbMText
  8
0
 62
256
370
-1
  6
ByLayer
 10
2000.0
 20
-900.0
 30
0.0
 40
100.0
 41
100.0
 71
5
 72
0
  1
1/2"\~PEEK\~rod
  7
normallatin1
 50
0.0
 73
1
 44
1.0
  0
LEADER
  5
89
  8
0
 62
256
370
-1
  6
ByLayer
100
AcDbEntity
100
AcDbLeader
  3
Standard
 71
1
 72
0
 73
3
 74
0
 75
0
 40
1.0
 41
10.0
 76
3
 10
1000.0
 20
-1400.0
 10
1300.0
 20
-900.0
 10
1500.0
 20
-900.0
  0
LEADER
  5
8A
  8
0
 62
256
370
-1
  6
ByLayer
100
AcDbEntity
100
AcDbLeader
  3
Standard
 71
1
 72
0
 73
3
 74
0
 75
0
 40
1.0
 41
10.0
 76
3
 10
2800.0
 20
-1400.0
 10
2600.0
 20
-900.0
 10
2500.0
 20
-900.0
  0
DIMENSION
  5
8B
100
AcDbEntity
  8
0
 62
256
370
-1
  6
ByLayer
100
AcDbDimension
 10
3250.0
 20
-2000.0
 30
0.0
 11
3000.0
 21
-1926.1811023622049106
 31
0.0
 70
0
 71
5
 72
1
 41
1.0
 42
0.0
  1

  3
Standard
100
AcDbAlignedDimension
 13
2750.0
 23
-1600.0
 33
0.0
 14
3250.0
 24
-1600.0
 34
0.0
 50
0.0
100
AcDbRotatedDimension
  0
MTEXT
  5
8C
100
AcDbEntity
100
AcDbMText
  8
0
 62
256
370
-1
  6
ByLayer
 10
3000.0
 20
4000.0
 30
0.0
 40
200.0
 41
100.0
 71
4
 72
0
  1
Wade's\PExtruder\PAdapter
  7
normallatin1
 50
0.0
 73
1
 44
1.0
  0
MTEXT
  5
8D
100
AcDbEntity
100
AcDbMText
  8
0
 62
256
370
-1
  6
ByLayer
 10
3000.0
 20
0.0
 30
0.0
 40
200.0
 41
100.0
 71
4
 72
0
  1
Hotend
  7
normallatin1
 50
0.0
 73
1
 44
1.0
  0
MTEXT
  5
8E
100
AcDbEntity
100
AcDbMText
  8
0
 62
256
370
-1
  6
ByLayer
 10
3000.0
 20
1500.0
 30
0.0
 40
200.0
 41
100.0
 71
4
 72
0
  1
Thermal\PBreak
  7
normallatin1
 50
0.0
 73
1
 44
1.0
  0
DIMENSION
  5
8F
100
AcDbEntity
  8
0
 62
256
370
-1
  6
ByLayer
100
AcDbDimension
 10
149.9999999999997158
 20
3900.0
 30
0.0
 11
-300.0
 21
4000.0
 31
0.0
 70
0
 71
5
 72
0
 41
1.0
 42
4.7123889803846897
  1

  3
Standard
100
AcDbAlignedDimension
 13
0.0000000000000426
 23
3800.0
 33
0.0
 14
149.9999999999999716
 24
3605.0
 34
0.0
 50
0.0
100
AcDbRotatedDimension
  0
DIMENSION
  5
90
100
AcDbEntity
  8
0
 62
256
370
-1
  6
ByLayer
100
AcDbDimension
 10
-314.4999999999999432
 20
4100.0
 30
0.0
 11
0.0
 21
4200.0
 31
0.0
 70
0
 71
5
 72
0
 41
1.0
 42
4.7123889803846897
  1

  3
Standard
100
AcDbAlignedDimension
 13
314.4999999999998295
 23
3800.0
 33
0.0
 14
-314.4999999999997726
 24
3800.0
 34
0.0
 50
0.0
100
AcDbRotatedDimension
  0
MTEXT
  5
91
100
AcDbEntity
100
AcDbMText
  8
0
 62
256
370
-1
  6
ByLayer
 10
300.0
 20
6000.0
 30
0.0
 40
200.0
 41
100.0
 71
4
 72
0
  1
RepRap\~Hotend
  7
normallatin1
 50
0.0
 73
1
 44
1.0
  0
MTEXT
  5
92
100
AcDbEntity
100
AcDbMText
  8
0
 62
256
370
-1
  6
ByLayer
 10
300.0
 20
5500.0
 30
0.0
 40
100.0
 41
100.0
 71
4
 72
0
  1
Revision\~F
  7
normallatin1
 50
0.0
 73
1
 44
1.0
  0
MTEXT
  5
93
100
AcDbEntity
100
AcDbMText
  8
0
 62
256
370
-1
  6
ByLayer
 10
300.0
 20
5700.0
 30
0.0
 40
100.0
 41
100.0
 71
4
 72
0
  1
Ben\~Gamari
  7
normallatin1
 50
0.0
 73
1
 44
1.0
  0
LINE
  5
94
100
AcDbEntity
100
AcDbLine
  8
0
 62
256
370
-1
  6
DOT
 10
187.5000000000000568
 20
1950.0
 30
0.0
 11
58.9999999999998224
 21
1911.8948822334846227
 31
0.0
  0
LINE
  5
95
100
AcDbEntity
100
AcDbLine
  8
0
 62
256
370
-1
  6
DOT
 10
-187.499999999999801
 20
1950.0
 30
0.0
 11
-59.0000000000001705
 21
1911.8948822334846227
 31
0.0
  0
LINE
  5
96
100
AcDbEntity
100
AcDbLine
  8
0
 62
256
370
-1
  6
ByLayer
 10
187.5000000000000568
 20
1950.0
 30
0.0
 11
-187.499999999999801
 21
1950.0
 31
0.0
  0
LINE
  5
97
100
AcDbEntity
100
AcDbLine
  8
0
 62
256
370
-1
  6
ByLayer
 10
187.5000000000001137
 20
1450.0
 30
0.0
 11
-187.4999999999999432
 21
1450.0
 31
0.0
  0
MTEXT
  5
98
100
AcDbEntity
100
AcDbMText
  8
0
 62
256
370
-1
  6
ByLayer
 10
1000.0
 20
2100.0
 30
0.0
 40
100.0
 41
100.0
 71
4
 72
0
  1
3/8"-16\~threaded
  7
normallatin1
 50
0.0
 73
1
 44
1.0
  0
MTEXT
  5
99
100
AcDbEntity
100
AcDbMText
  8
0
 62
256
370
-1
  6
ByLayer
 10
1000.0
 20
2800.0
 30
0.0
 40
100.0
 41
100.0
 71
4
 72
0
  1
3/8"-16\~threaded
  7
normallatin1
 50
0.0
 73
1
 44
1.0
  0
LINE
  5
9A
100
AcDbEntity
100
AcDbLine
  8
0
 62
256
370
-1
  6
DOT
 10
-187.5000000000004547
 20
2450.0
 30
0.0
 11
-187.5000000000004547
 21
2575.0
 31
0.0
  0
LINE
  5
9B
100
AcDbEntity
100
AcDbLine
  8
0
 62
256
370
-1
  6
DOT
 10
187.5
 20
2450.0
 30
0.0
 11
187.5
 21
2575.0
 31
0.0
  0
LEADER
  5
9C
  8
0
 62
256
370
-1
  6
ByLayer
100
AcDbEntity
100
AcDbLeader
  3
Standard
 71
1
 72
0
 73
3
 74
0
 75
0
 40
1.0
 41
10.0
 76
3
 10
187.5000000000000568
 20
1950.0
 10
500.0
 20
2100.0
 10
1000.0
 20
2100.0
  0
LEADER
  5
9D
  8
0
 62
256
370
-1
  6
ByLayer
100
AcDbEntity
100
AcDbLeader
  3
Standard
 71
1
 72
0
 73
3
 74
0
 75
0
 40
1.0
 41
10.0
 76
3
 10
187.5000000000001137
 20
1450.0
 10
700.0
 20
1800.0
 10
1000.0
 20
1800.0
  0
MTEXT
  5
9E
100
AcDbEntity
100
AcDbMText
  8
0
 62
256
370
-1
  6
ByLayer
 10
1000.0
 20
4400.0
 30
0.0
 40
100.0
 41
100.0
 71
4
 72
0
  1
1/2"\~PTFE\~rod
  7
normallatin1
 50
0.0
 73
1
 44
1.0
  0
CIRCLE
  5
9F
100
AcDbEntity
100
AcDbCircle
  8
0
 62
256
370
-1
  6
DOT
 10
0.0
 20
5000.0
 30
0.0
 40
187.5
  0
DIMENSION
  5
A0
100
AcDbEntity
  8
0
 62
256
370
-1
  6
ByLayer
100
AcDbDimension
 10
-100.0
 20
2100.0
 30
0.0
 11
0.0000000000001608
 21
2173.8188976377950894
 31
0.0
 70
0
 71
5
 72
1
 41
1.0
 42
4.7123889803846897
  1

  3
Standard
100
AcDbAlignedDimension
 13
187.5000000000000568
 23
1950.0
 33
0.0
 14
-187.499999999999801
 24
1950.0
 34
0.0
 50
0.0
100
AcDbRotatedDimension
  0
LINE
  5
A1
100
AcDbEntity
100
AcDbLine
  8
0
 62
256
370
-1
  6
DOT
 10
610.0
 20
2450.0
 30
0.0
 11
610.0
 21
2575.0
 31
0.0
  0
LINE
  5
A2
100
AcDbEntity
100
AcDbLine
  8
0
 62
256
370
-1
  6
DOT
 10
800.0
 20
2450.0
 30
0.0
 11
800.0
 21
2575.0
 31
0.0
  0
LINE
  5
A3
100
AcDbEntity
100
AcDbLine
  8
0
 62
256
370
-1
  6
DOT
 10
-610.0000000000002274
 20
2450.0
 30
0.0
 11
-610.0000000000002274
 21
2575.0
 31
0.0
  0
LINE
  5
A4
100
AcDbEntity
100
AcDbLine
  8
0
 62
256
370
-1
  6
DOT
 10
-800.0000000000002274
 20
2450.0
 30
0.0
 11
-800.0000000000002274
 21
2575.0
 31
0.0
  0
LINE
  5
A5
100
AcDbEntity
100
AcDbLine
  8
0
 62
256
370
-1
  6
DOT
 10
-800.0
 20
-1776.7766952966367171
 30
0.0
 11
-800.0
 21
-1423.2233047033632829
 31
0.0
  0
LINE
  5
A6
100
AcDbEntity
100
AcDbLine
  8
0
 62
256
370
-1
  6
DOT
 10
-610.0
 20
-1776.7766952966367171
 30
0.0
 11
-610.0
 21
-1423.2233047033632829
 31
0.0
  0
LINE
  5
A7
100
AcDbEntity
100
AcDbLine
  8
0
 62
256
370
-1
  6
DOT
 10
800.0
 20
-1776.7766952966367171
 30
0.0
 11
800.0
 21
-1423.2233047033628281
 31
0.0
  0
LINE
  5
A8
100
AcDbEntity
100
AcDbLine
  8
0
 62
256
370
-1
  6
DOT
 10
610.0
 20
-1776.7766952966367171
 30
0.0
 11
610.0
 21
-1423.2233047033632829
 31
0.0
  0
LINE
  5
A9
100
AcDbEntity
100
AcDbLine
  8
0
 62
256
370
-1
  6
ByLayer
 10
187.4999999999998863
 20
300.0
 30
0.0
 11
187.5000000000001137
 21
499.9999999999998863
 31
0.0
  0
LINE
  5
AA
100
AcDbEntity
100
AcDbLine
  8
0
 62
256
370
-1
  6
ByLayer
 10
187.4999999999998863
 20
300.0
 30
0.0
 11
124.9999999999997584
 21
300.0
 31
0.0
  0
LINE
  5
AB
100
AcDbEntity
100
AcDbLine
  8
0
 62
256
370
-1
  6
ByLayer
 10
-187.5000000000005116
 20
300.0000000000004547
 30
0.0
 11
-187.5000000000001137
 21
500.0000000000001137
 31
0.0
  0
LINE
  5
AC
100
AcDbEntity
100
AcDbLine
  8
0
 62
256
370
-1
  6
ByLayer
 10
-187.5000000000005116
 20
300.0000000000004547
 30
0.0
 11
-125.0000000000000426
 21
300.0
 31
0.0
  0
LINE
  5
AD
100
AcDbEntity
100
AcDbLine
  8
0
 62
256
370
-1
  6
ByLayer
 10
124.9999999999997584
 20
300.0
 30
0.0
 11
124.9999999999998721
 21
-400.0
 31
0.0
  0
LINE
  5
AE
100
AcDbEntity
100
AcDbLine
  8
0
 62
256
370
-1
  6
ByLayer
 10
-125.0000000000000426
 20
300.0
 30
0.0
 11
-125.0000000000007532
 21
-400.0
 31
0.0
  0
DIMENSION
  5
AF
100
AcDbEntity
  8
0
 62
256
370
-1
  6
ByLayer
100
AcDbDimension
 10
-400.0
 20
500.0000000000001137
 30
0.0
 11
-473.8188976377952599
 21
400.0000000000002842
 31
0.0
 70
0
 71
5
 72
1
 41
1.0
 42
0.0
  1

  3
Standard
100
AcDbAlignedDimension
 13
-187.5000000000005116
 23
300.0000000000004547
 33
0.0
 14
-187.5000000000001137
 24
500.0000000000001137
 34
0.0
 50
90.0
100
AcDbRotatedDimension
  0
DIMENSION
  5
B0
100
AcDbEntity
  8
0
 62
256
370
-1
  6
ByLayer
100
AcDbDimension
 10
-400.0000000000000568
 20
-400.0
 30
0.0
 11
-473.8188976377953168
 21
-49.9999999999997655
 31
0.0
 70
0
 71
5
 72
1
 41
1.0
 42
0.0
  1

  3
Standard
100
AcDbAlignedDimension
 13
-187.5000000000005116
 23
300.0000000000004547
 33
0.0
 14
-125.0000000000007532
 24
-400.0
 34
0.0
 50
90.0
100
AcDbRotatedDimension
  0
LINE
  5
B1
100
AcDbEntity
100
AcDbLine
  8
0
 62
256
370
-1
  6
DOT
 10
125.0000000000002842
 20
400.0000000000000568
 30
0.0
 11
125.0000000000001137
 21
500.0000000000001137
 31
0.0
  0
LINE
  5
B2
100
AcDbEntity
100
AcDbLine
  8
0
 62
256
370
-1
  6
DOT
 10
-59.000000000000199
 20
364.9071775103423647
 30
0.0
 11
-59.0000000000000995
 21
0.0
 31
0.0
  0
LINE
  5
B3
100
AcDbEntity
100
AcDbLine
  8
0
 62
256
370
-1
  6
DOT
 10
-125.0000000000002416
 20
400.0
 30
0.0
 11
-59.000000000000199
 21
364.9071775103423647
 31
0.0
  0
LINE
  5
B4
100
AcDbEntity
100
AcDbLine
  8
0
 62
256
370
-1
  6
DOT
 10
59.0000000000001918
 20
364.9071775103423079
 30
0.0
 11
58.9999999999999361
 21
0.0
 31
0.0
  0
LINE
  5
B5
100
AcDbEntity
100
AcDbLine
  8
0
 62
256
370
-1
  6
DOT
 10
125.0000000000002416
 20
399.9999999999999432
 30
0.0
 11
59.0000000000001918
 21
364.9071775103423079
 31
0.0
  0
LINE
  5
B6
100
AcDbEntity
100
AcDbLine
  8
0
 62
256
370
-1
  6
DOT
 10
-68.0000000000004121
 20
0.0
 30
0.0
 11
-59.0000000000000995
 21
0.0
 31
0.0
  0
LINE
  5
B7
100
AcDbEntity
100
AcDbLine
  8
0
 62
256
370
-1
  6
DOT
 10
58.9999999999999361
 20
0.0
 30
0.0
 11
67.9999999999999858
 21
0.0
 31
0.0
  0
LINE
  5
B8
100
AcDbEntity
100
AcDbLine
  8
0
 62
256
370
-1
  6
DOT
 10
187.5
 20
3000.0
 30
0.0
 11
187.5000000000000568
 21
3431.9411927473306605
 31
0.0
  0
LINE
  5
B9
100
AcDbEntity
100
AcDbLine
  8
0
 62
256
370
-1
  6
DOT
 10
59.5
 20
3500.0
 30
0.0
 11
187.5000000000000568
 21
3431.9411927473306605
 31
0.0
  0
LINE
  5
BA
100
AcDbEntity
100
AcDbLine
  8
0
 62
256
370
-1
  6
DOT
 10
-187.5000000000000853
 20
3000.0
 30
0.0
 11
-187.5
 21
3431.9411927473311152
 31
0.0
  0
LINE
  5
BB
100
AcDbEntity
100
AcDbLine
  8
0
 62
256
370
-1
  6
DOT
 10
-59.4999999999999503
 20
3500.0
 30
0.0
 11
-187.5
 21
3431.9411927473311152
 31
0.0
  0
DIMENSION
  5
BC
100
AcDbEntity
  8
0
 62
256
370
-1
  6
ByLayer
100
AcDbDimension
 10
-500.0
 20
3431.9411927473311152
 30
0.0
 11
-573.8188976377953168
 21
3215.9705963736655576
 31
0.0
 70
0
 71
5
 72
1
 41
1.0
 42
0.0
  1

  3
Standard
100
AcDbAlignedDimension
 13
-314.5
 23
3000.0
 33
0.0
 14
-187.5
 24
3431.9411927473311152
 34
0.0
 50
90.0
100
AcDbRotatedDimension
  0
LINE
  5
BD
100
AcDbEntity
100
AcDbLine
  8
0
 62
256
370
-1
  6
ByLayer
 10
3000.0
 20
3000.0
 30
0.0
 11
5000.0
 21
3000.0
 31
0.0
  0
LINE
  5
BE
100
AcDbEntity
100
AcDbLine
  8
0
 62
256
370
-1
  6
ByLayer
 10
5000.0
 20
3000.0
 30
0.0
 11
5000.0
 21
2000.0
 31
0.0
  0
LINE
  5
BF
100
AcDbEntity
100
AcDbLine
  8
0
 62
256
370
-1
  6
ByLayer
 10
5000.0
 20
2000.0
 30
0.0
 11
3000.0
 21
2000.0
 31
0.0
  0
LINE
  5
C0
100
AcDbEntity
100
AcDbLine
  8
0
 62
256
370
-1
  6
ByLayer
 10
3000.0
 20
2000.0
 30
0.0
 11
3000.0
 21
3000.0
 31
0.0
  0
CIRCLE
  5
C1
100
AcDbEntity
100
AcDbCircle
  8
0
 62
256
370
-1
  6
ByLayer
 10
4000.0
 20
2500.0
 30
0.0
 40
187.5
  0
LINE
  5
C2
100
AcDbEntity
100
AcDbLine
  8
0
 62
256
370
-1
  6
ByLayer
 10
610.0
 20
2450.0
 30
0.0
 11
800.0
 21
2450.0
 31
0.0
  0
LINE
  5
C3
100
AcDbEntity
100
AcDbLine
  8
0
 62
256
370
-1
  6
ByLayer
 10
800.0
 20
2575.0
 30
0.0
 11
610.0
 21
2575.0
 31
0.0
  0
LINE
  5
C4
100
AcDbEntity
100
AcDbLine
  8
0
 62
256
370
-1
  6
ByLayer
 10
-610.0000000000002274
 20
2575.0
 30
0.0
 11
-800.0000000000002274
 21
2575.0
 31
0.0
  0
LINE
  5
C5
100
AcDbEntity
100
AcDbLine
  8
0
 62
256
370
-1
  6
ByLayer
 10
-800.0000000000002274
 20
2450.0
 30
0.0
 11
-610.0000000000002274
 21
2450.0
 31
0.0
  0
DIMENSION
  5
C6
100
AcDbEntity
  8
0
 62
256
370
-1
  6
ByLayer
100
AcDbDimension
 10
-705.0000000000002274
 20
2700.0
 30
0.0
 11
-352.5000000000001137
 21
2773.8188976377950894
 31
0.0
 70
0
 71
5
 72
1
 41
1.0
 42
0.0
  1

  3
Standard
100
AcDbAlignedDimension
 13
-0.0000000000001137
 23
2575.0
 33
0.0
 14
-705.0000000000002274
 24
2575.0
 34
0.0
 50
0.0
100
AcDbRotatedDimension
  0
CIRCLE
  5
C7
100
AcDbEntity
100
AcDbCircle
  8
0
 62
256
370
-1
  6
ByLayer
 10
3295.0
 20
2500.0
 30
0.0
 40
95.0
  0
CIRCLE
  5
C8
100
AcDbEntity
100
AcDbCircle
  8
0
 62
256
370
-1
  6
ByLayer
 10
4705.0
 20
2500.0
 30
0.0
 40
95.0
  0
DIMENSION
  5
C9
100
AcDbEntity
  8
0
 62
256
370
-1
  6
ByLayer
100
AcDbDimension
 10
3812.5
 20
2500.0
 30
0.0
 11
4000.0
 21
2573.8188976377950894
 31
0.0
 70
3
 71
5
 72
1
 41
1.0
 42
0.0
  1

  3
Standard
100
AcDbDiametricDimension
 15
4187.5
 25
2500.0
 35
0.0
 40
0.0
  0
LINE
  5
CA
100
AcDbEntity
100
AcDbLine
  8
0
 62
256
370
-1
  6
ByLayer
 10
-249.999999999999801
 20
1450.0
 30
0.0
 11
249.9999999999997158
 21
1450.0
 31
0.0
  0
LINE
  5
CB
100
AcDbEntity
100
AcDbLine
  8
0
 62
256
370
-1
  6
ByLayer
 10
249.9999999999996589
 20
1350.0
 30
0.0
 11
-249.9999999999997726
 21
1350.0
 31
0.0
  0
LINE
  5
CC
100
AcDbEntity
100
AcDbLine
  8
0
 62
256
370
-1
  6
ByLayer
 10
107.4999999999996021
 20
1350.0
 30
0.0
 11
-107.4999999999998863
 21
1350.0
 31
0.0
  0
LINE
  5
CD
100
AcDbEntity
100
AcDbLine
  8
0
 62
256
370
-1
  6
ByLayer
 10
249.9999999999997158
 20
1450.0
 30
0.0
 11
249.9999999999996589
 21
1350.0
 31
0.0
  0
LINE
  5
CE
100
AcDbEntity
100
AcDbLine
  8
0
 62
256
370
-1
  6
ByLayer
 10
-249.9999999999997726
 20
1350.0
 30
0.0
 11
-249.999999999999801
 21
1450.0
 31
0.0
  0
LINE
  5
CF
100
AcDbEntity
100
AcDbLine
  8
0
 62
256
370
-1
  6
ByLayer
 10
125.0000000000003979
 20
1200.0
 30
0.0
 11
-125.0000000000003979
 21
1200.0
 31
0.0
  0
LINE
  5
D0
100
AcDbEntity
100
AcDbLine
  8
0
 62
256
370
-1
  6
ByLayer
 10
125.0000000000003126
 20
1350.0
 30
0.0
 11
125.0000000000003979
 21
1200.0
 31
0.0
  0
LINE
  5
D1
100
AcDbEntity
100
AcDbLine
  8
0
 62
256
370
-1
  6
ByLayer
 10
-125.0000000000007674
 20
1350.0
 30
0.0
 11
-125.0000000000003979
 21
1200.0
 31
0.0
  0
LINE
  5
D2
100
AcDbEntity
100
AcDbLine
  8
0
 62
256
370
-1
  6
DOT
 10
62.4999999999998224
 20
1913.9156081756482308
 30
0.0
 11
62.4999999999986073
 21
1200.0
 31
0.0
  0
LINE
  5
D3
100
AcDbEntity
100
AcDbLine
  8
0
 62
256
370
-1
  6
DOT
 10
-62.5000000000001776
 20
1913.9156081756482308
 30
0.0
 11
-62.4999999999993463
 21
1200.0
 31
0.0
  0
LINE
  5
D4
100
AcDbEntity
100
AcDbLine
  8
0
 62
256
370
-1
  6
ByLayer
 10
187.5
 20
1450.0
 30
0.0
 11
187.5000000000000568
 21
1950.0
 31
0.0
  0
LINE
  5
D5
100
AcDbEntity
100
AcDbLine
  8
0
 62
256
370
-1
  6
ByLayer
 10
-187.5
 20
1450.0
 30
0.0
 11
-187.499999999999801
 21
1950.0
 31
0.0
  0
LINE
  5
D6
100
AcDbEntity
100
AcDbLine
  8
0
 62
256
370
-1
  6
ByLayer
 10
212.5000000000003695
 20
1450.0
 30
0.0
 11
-212.5000000000003411
 21
1450.0
 31
0.0
  0
DIMENSION
  5
D7
100
AcDbEntity
  8
0
 62
256
370
-1
  6
ByLayer
100
AcDbDimension
 10
-400.0
 20
1950.0
 30
0.0
 11
-473.8188976377952599
 21
1700.0
 31
0.0
 70
0
 71
5
 72
1
 41
1.0
 42
0.0
  1

  3
Standard
100
AcDbAlignedDimension
 13
-249.999999999999801
 23
1450.0
 33
0.0
 14
-187.499999999999801
 24
1950.0
 34
0.0
 50
90.0
100
AcDbRotatedDimension
  0
DIMENSION
  5
D8
100
AcDbEntity
  8
0
 62
256
370
-1
  6
ByLayer
100
AcDbDimension
 10
5300.0
 20
2000.0
 30
0.0
 11
5226.1811023622049106
 21
2500.0
 31
0.0
 70
0
 71
5
 72
1
 41
1.0
 42
0.0
  1

  3
Standard
100
AcDbAlignedDimension
 13
5000.0
 23
3000.0
 33
0.0
 14
5000.0
 24
2000.0
 34
0.0
 50
90.0
100
AcDbRotatedDimension
  0
MTEXT
  5
D9
100
AcDbEntity
100
AcDbMText
  8
0
 62
256
370
-1
  6
ByLayer
 10
2800.0
 20
3100.0
 30
0.0
 40
100.0
 41
100.0
 71
4
 72
0
  1
Top\~view\~of\~retention\~plate
  7
normallatin1
 50
0.0
 73
1
 44
1.0
  0
LEADER
  5
DA
  8
0
 62
256
370
-1
  6
ByLayer
100
AcDbEntity
100
AcDbLeader
  3
Standard
 71
1
 72
0
 73
3
 74
0
 75
0
 40
1.0
 41
10.0
 76
3
 10
1000.0
 20
2500.0
 10
1300.0
 20
2300.0
 10
1500.0
 20
2300.0
  0
LEADER
  5
DB
  8
0
 62
256
370
-1
  6
ByLayer
100
AcDbEntity
100
AcDbLeader
  3
Standard
 71
1
 72
0
 73
3
 74
0
 75
0
 40
1.0
 41
10.0
 76
3
 10
3000.0
 20
2500.0
 10
2600.0
 20
2300.0
 10
2400.0
 20
2300.0
  0
MTEXT
  5
DC
100
AcDbEntity
100
AcDbMText
  8
0
 62
256
370
-1
  6
ByLayer
 10
1500.0
 20
2300.0
 30
0.0
 40
100.0
 41
100.0
 71
4
 72
0
  1
1/8"\~Al\~plate
  7
normallatin1
 50
0.0
 73
1
 44
1.0
  0
ENDSEC
  0
SECTION
  2
OBJECTS
  0
DICTIONARY
  5
C
100
AcDbDictionary
280
0
281
1
  3
ACAD_GROUP
350
D
  3
ACAD_LAYOUT
350
1A
  3
ACAD_MLINESTYLE
350
17
  3
ACAD_PLOTSETTINGS
350
19
  3
ACAD_PLOTSTYLENAME
350
E
  3
AcDbVariableDictionary
350
DD
  0
DICTIONARY
  5
D
100
AcDbDictionary
280
0
281
1
  0
ACDBDICTIONARYWDFLT
  5
E
100
AcDbDictionary
281
1
  3
Normal
350
F
100
AcDbDictionaryWithDefault
340
F
  0
ACDBPLACEHOLDER
  5
F
  0
DICTIONARY
  5
17
100
AcDbDictionary
280
0
281
1
  3
Standard
350
18
  0
MLINESTYLE
  5
18
100
AcDbMlineStyle
  2
STANDARD
 70
0
  3

 62
256
 51
90.0
 52
90.0
 71
2
 49
0.5
 62
256
  6
BYLAYER
 49
-0.5
 62
256
  6
BYLAYER
  0
DICTIONARY
  5
19
100
AcDbDictionary
280
0
281
1
  0
DICTIONARY
  5
1A
100
AcDbDictionary
281
1
  3
Layout1
350
1E
  3
Layout2
350
26
  3
Model
350
22
  0
LAYOUT
  5
1E
100
AcDbPlotSettings
  1

  2
C:\Program Files\AutoCAD 2002\plotters\DWF ePlot (optimized for plotting).pc3
  4

  6

 40
0.0
 41
0.0
 42
0.0
 43
0.0
 44
0.0
 45
0.0
 46
0.0
 47
0.0
 48
0.0
 49
0.0
140
0.0
141
0.0
142
1.0
143
1.0
 70
688
 72
0
 73
0
 74
5
  7

 75
16
147
1.0
148
0.0
149
0.0
100
AcDbLayout
  1
Layout1
 70
1
 71
1
 10
0.0
 20
0.0
 11
420.0
 21
297.0
 12
0.0
 22
0.0
 32
0.0
 14
100000000000000000000.0
 24
100000000000000000000.0
 34
100000000000000000000.0
 15
-100000000000000000000.0
 25
-100000000000000000000.0
 35
-100000000000000000000.0
146
0.0
 13
0.0
 23
0.0
 33
0.0
 16
1.0
 26
0.0
 36
0.0
 17
0.0
 27
1.0
 37
0.0
 76
0
330
1B
  0
LAYOUT
  5
22
100
AcDbPlotSettings
  1

  2
C:\Program Files\AutoCAD 2002\plotters\DWF ePlot (optimized for plotting).pc3
  4

  6

 40
0.0
 41
0.0
 42
0.0
 43
0.0
 44
0.0
 45
0.0
 46
0.0
 47
0.0
 48
0.0
 49
0.0
140
0.0
141
0.0
142
1.0
143
1.0
 70
1712
 72
0
 73
0
 74
0
  7

 75
0
147
1.0
148
0.0
149
0.0
100
AcDbLayout
  1
Model
 70
1
 71
0
 10
0.0
 20
0.0
 11
12.0
 21
9.0
 12
0.0
 22
0.0
 32
0.0
 14
0.0
 24
0.0
 34
0.0
 15
0.0
 25
0.0
 35
0.0
146
0.0
 13
0.0
 23
0.0
 33
0.0
 16
1.0
 26
0.0
 36
0.0
 17
0.0
 27
1.0
 37
0.0
 76
0
330
1F
  0
LAYOUT
  5
26
100
AcDbPlotSettings
  1

  2
C:\Program Files\AutoCAD 2002\plotters\DWF ePlot (optimized for plotting).pc3
  4

  6

 40
0.0
 41
0.0
 42
0.0
 43
0.0
 44
0.0
 45
0.0
 46
0.0
 47
0.0
 48
0.0
 49
0.0
140
0.0
141
0.0
142
1.0
143
1.0
 70
688
 72
0
 73
0
 74
5
  7

 75
16
147
1.0
148
0.0
149
0.0
100
AcDbLayout
  1
Layout2
 70
1
 71
2
 10
0.0
 20
0.0
 11
12.0
 21
9.0
 12
0.0
 22
0.0
 32
0.0
 14
0.0
 24
0.0
 34
0.0
 15
0.0
 25
0.0
 35
0.0
146
0.0
 13
0.0
 23
0.0
 33
0.0
 16
1.0
 26
0.0
 36
0.0
 17
0.0
 27
1.0
 37
0.0
 76
0
330
23
  0
DICTIONARY
  5
DD
100
AcDbDictionary
281
1
  3
DIMASSOC
350
DF
  3
HIDETEXT
350
DE
  0
DICTIONARYVAR
  5
DE
100
DictionaryVariables
280
0
  1
2
  0
DICTIONARYVAR
  5
DF
100
DictionaryVariables
280
0
  1
1
  0
ENDSEC
  0
EOF
